<svg width="32" height="32" viewBox="0 0 32 32" fill="none" xmlns="http://www.w3.org/2000/svg">
<path d="M29.3333 14.6667H18.6667C18.3131 14.6667 17.9739 14.5262 17.7239 14.2762C17.4738 14.0261 17.3333 13.687 17.3333 13.3333V2.66668C17.3333 2.31306 17.4738 1.97392 17.7239 1.72387C17.9739 1.47382 18.3131 1.33335 18.6667 1.33335H29.3333C29.687 1.33335 30.0261 1.47382 30.2762 1.72387C30.5262 1.97392 30.6667 2.31306 30.6667 2.66668V13.3333C30.6667 13.687 30.5262 14.0261 30.2762 14.2762C30.0261 14.5262 29.687 14.6667 29.3333 14.6667ZM20 12H28V4.00001H20V12Z" fill="#428777"/>
<path d="M24 30.6667C22.6815 30.6667 21.3925 30.2757 20.2962 29.5432C19.1999 28.8106 18.3454 27.7694 17.8408 26.5513C17.3362 25.3331 17.2042 23.9926 17.4614 22.6994C17.7187 21.4062 18.3536 20.2183 19.286 19.286C20.2183 18.3536 21.4062 17.7187 22.6994 17.4615C23.9926 17.2042 25.3331 17.3362 26.5512 17.8408C27.7694 18.3454 28.8106 19.1999 29.5431 20.2962C30.2757 21.3926 30.6667 22.6815 30.6667 24C30.6646 25.7675 29.9615 27.462 28.7117 28.7117C27.4619 29.9615 25.7675 30.6646 24 30.6667ZM24 20C23.2089 20 22.4355 20.2346 21.7777 20.6742C21.1199 21.1137 20.6072 21.7384 20.3045 22.4693C20.0017 23.2002 19.9225 24.0045 20.0769 24.7804C20.2312 25.5563 20.6122 26.269 21.1716 26.8285C21.731 27.3879 22.4437 27.7688 23.2197 27.9232C23.9956 28.0775 24.7998 27.9983 25.5307 27.6955C26.2617 27.3928 26.8864 26.8801 27.3259 26.2223C27.7654 25.5645 28 24.7912 28 24C28 22.9392 27.5786 21.9217 26.8284 21.1716C26.0783 20.4215 25.0609 20 24 20Z" fill="#428777"/>
<path d="M13.3333 17.3333H2.66668C2.31305 17.3333 1.97392 17.4738 1.72387 17.7238C1.47382 17.9739 1.33334 18.313 1.33334 18.6666V29.3333C1.33334 29.6869 1.47382 30.0261 1.72387 30.2761C1.97392 30.5262 2.31305 30.6666 2.66668 30.6666H13.3333C13.687 30.6666 14.0261 30.5262 14.2762 30.2761C14.5262 30.0261 14.6667 29.6869 14.6667 29.3333V18.6666C14.6667 18.313 14.5262 17.9739 14.2762 17.7238C14.0261 17.4738 13.687 17.3333 13.3333 17.3333ZM12 28H4.00001V20H12V28Z" fill="#428777"/>
<path d="M13.3333 14.6667H2.66668C2.31305 14.6667 1.97392 14.5262 1.72387 14.2762C1.47382 14.0261 1.33334 13.687 1.33334 13.3333V2.66668C1.33334 2.31306 1.47382 1.97392 1.72387 1.72387C1.97392 1.47382 2.31305 1.33335 2.66668 1.33335H13.3333C13.687 1.33335 14.0261 1.47382 14.2762 1.72387C14.5262 1.97392 14.6667 2.31306 14.6667 2.66668V13.3333C14.6667 13.687 14.5262 14.0261 14.2762 14.2762C14.0261 14.5262 13.687 14.6667 13.3333 14.6667ZM4.00001 12H12V4.00001H4.00001V12Z" fill="#428777"/>
</svg>
