<svg width="316" height="237" viewBox="0 0 316 237" fill="none" xmlns="http://www.w3.org/2000/svg">
<rect width="316" height="237" rx="24" fill="#428777"/>
<path d="M162 148C162 135.144 165.812 122.577 172.954 111.888C180.097 101.199 190.248 92.8675 202.126 87.9478C214.003 83.0281 227.072 81.7409 239.681 84.249C252.29 86.757 263.872 92.9477 272.962 102.038C282.052 111.128 288.243 122.71 290.751 135.319C293.259 147.928 291.972 160.997 287.052 172.874C282.132 184.752 273.801 194.903 263.112 202.046C252.423 209.188 239.856 213 227 213L227 193.5C235.999 193.5 244.796 190.831 252.278 185.832C259.761 180.832 265.593 173.726 269.037 165.412C272.48 157.098 273.381 147.95 271.626 139.123C269.87 130.297 265.537 122.19 259.173 115.827C252.81 109.463 244.703 105.13 235.877 103.374C227.05 101.619 217.902 102.52 209.588 105.963C201.274 109.407 194.168 115.239 189.168 122.722C184.169 130.204 181.5 139.001 181.5 148H162Z" fill="white" fill-opacity="0.5"/>
<path d="M227 213C218.464 213 210.012 211.319 202.126 208.052C194.239 204.786 187.074 199.998 181.038 193.962C175.002 187.926 170.214 180.761 166.948 172.874C163.681 164.988 162 156.536 162 148H181.5C181.5 153.975 182.677 159.892 184.963 165.412C187.25 170.932 190.602 175.948 194.827 180.173C199.052 184.398 204.068 187.75 209.588 190.037C215.108 192.323 221.025 193.5 227 193.5V213Z" fill="white"/>
<path d="M217.985 152.603C218.705 152.603 219.065 152.909 219.065 153.521C219.065 154.157 218.705 154.475 217.985 154.475H211.145C210.833 154.475 210.587 154.385 210.407 154.205C210.227 154.013 210.137 153.779 210.137 153.503C210.137 153.143 210.275 152.819 210.551 152.531L214.655 148.121C215.159 147.569 215.525 147.065 215.753 146.609C215.993 146.141 216.113 145.679 216.113 145.223C216.113 144.659 215.951 144.227 215.627 143.927C215.303 143.627 214.841 143.477 214.241 143.477C213.749 143.477 213.269 143.573 212.801 143.765C212.345 143.945 211.883 144.197 211.415 144.521C211.295 144.605 211.175 144.677 211.055 144.737C210.935 144.785 210.815 144.809 210.695 144.809C210.491 144.809 210.311 144.713 210.155 144.521C210.011 144.329 209.939 144.101 209.939 143.837C209.939 143.657 209.969 143.501 210.029 143.369C210.101 143.237 210.209 143.111 210.353 142.991C210.881 142.571 211.499 142.241 212.207 142.001C212.915 141.749 213.623 141.623 214.331 141.623C215.567 141.623 216.551 141.935 217.283 142.559C218.027 143.183 218.399 144.023 218.399 145.079C218.399 145.811 218.243 146.501 217.931 147.149C217.619 147.785 217.091 148.499 216.347 149.291L213.233 152.603H217.985ZM225.898 146.357C226.69 146.357 227.386 146.531 227.986 146.879C228.598 147.215 229.072 147.689 229.408 148.301C229.744 148.913 229.912 149.615 229.912 150.407C229.912 151.235 229.72 151.967 229.336 152.603C228.964 153.239 228.43 153.737 227.734 154.097C227.05 154.445 226.258 154.619 225.358 154.619C224.614 154.619 223.882 154.499 223.162 154.259C222.454 154.007 221.848 153.671 221.344 153.251C221.068 153.011 220.93 152.729 220.93 152.405C220.93 152.141 221.002 151.919 221.146 151.739C221.302 151.547 221.482 151.451 221.686 151.451C221.806 151.451 221.92 151.475 222.028 151.523C222.136 151.559 222.262 151.625 222.406 151.721C222.886 152.057 223.354 152.315 223.81 152.495C224.266 152.675 224.752 152.765 225.268 152.765C226.06 152.765 226.666 152.567 227.086 152.171C227.506 151.775 227.716 151.211 227.716 150.479C227.716 149.771 227.5 149.213 227.068 148.805C226.648 148.385 226.066 148.175 225.322 148.175C224.854 148.175 224.434 148.241 224.062 148.373C223.702 148.505 223.33 148.727 222.946 149.039C222.718 149.195 222.484 149.273 222.244 149.273C222.004 149.273 221.8 149.201 221.632 149.057C221.464 148.913 221.38 148.721 221.38 148.481V142.865C221.38 142.529 221.476 142.265 221.668 142.073C221.86 141.881 222.13 141.785 222.478 141.785H228.472C229.192 141.785 229.552 142.085 229.552 142.685C229.552 143.285 229.192 143.585 228.472 143.585H223.648V147.005C224.26 146.573 225.01 146.357 225.898 146.357ZM236.601 154.223C236.493 154.415 236.361 154.559 236.205 154.655C236.049 154.751 235.893 154.799 235.737 154.799C235.521 154.799 235.329 154.721 235.161 154.565C235.005 154.409 234.927 154.211 234.927 153.971C234.927 153.767 234.987 153.563 235.107 153.359L241.659 142.037C241.767 141.845 241.899 141.701 242.055 141.605C242.211 141.509 242.367 141.461 242.523 141.461C242.739 141.461 242.925 141.539 243.081 141.695C243.249 141.851 243.333 142.049 243.333 142.289C243.333 142.493 243.273 142.697 243.153 142.901L236.601 154.223ZM234.603 149.363C233.595 149.363 232.809 149.033 232.245 148.373C231.681 147.713 231.399 146.747 231.399 145.475C231.399 144.215 231.681 143.255 232.245 142.595C232.809 141.935 233.595 141.605 234.603 141.605C235.611 141.605 236.397 141.935 236.961 142.595C237.537 143.255 237.825 144.215 237.825 145.475C237.825 146.747 237.537 147.713 236.961 148.373C236.397 149.033 235.611 149.363 234.603 149.363ZM234.603 147.905C235.059 147.905 235.389 147.719 235.593 147.347C235.809 146.963 235.917 146.339 235.917 145.475C235.917 144.635 235.809 144.023 235.593 143.639C235.377 143.255 235.047 143.063 234.603 143.063C234.159 143.063 233.829 143.255 233.613 143.639C233.409 144.011 233.307 144.623 233.307 145.475C233.307 146.339 233.409 146.963 233.613 147.347C233.829 147.719 234.159 147.905 234.603 147.905ZM243.657 154.601C242.649 154.601 241.863 154.271 241.299 153.611C240.735 152.951 240.453 151.979 240.453 150.695C240.453 149.435 240.735 148.481 241.299 147.833C241.875 147.173 242.661 146.843 243.657 146.843C244.665 146.843 245.451 147.173 246.015 147.833C246.579 148.493 246.861 149.453 246.861 150.713C246.861 151.985 246.579 152.951 246.015 153.611C245.451 154.271 244.665 154.601 243.657 154.601ZM243.657 153.143C244.101 153.143 244.431 152.957 244.647 152.585C244.863 152.201 244.971 151.577 244.971 150.713C244.971 149.873 244.863 149.261 244.647 148.877C244.431 148.493 244.101 148.301 243.657 148.301C243.213 148.301 242.883 148.493 242.667 148.877C242.451 149.261 242.343 149.873 242.343 150.713C242.343 151.577 242.451 152.201 242.667 152.585C242.883 152.957 243.213 153.143 243.657 153.143Z" fill="white"/>
<path d="M29.76 42.162C28.836 42.162 27.96 42.042 27.132 41.802C26.316 41.55 25.65 41.214 25.134 40.794C24.858 40.59 24.72 40.302 24.72 39.93C24.72 39.678 24.792 39.462 24.936 39.282C25.092 39.09 25.272 38.994 25.476 38.994C25.692 38.994 25.938 39.078 26.214 39.246C26.73 39.618 27.27 39.888 27.834 40.056C28.398 40.224 29.022 40.308 29.706 40.308C30.582 40.308 31.254 40.158 31.722 39.858C32.19 39.546 32.424 39.096 32.424 38.508C32.424 38.052 32.202 37.704 31.758 37.464C31.326 37.212 30.6 36.972 29.58 36.744C28.524 36.516 27.666 36.252 27.006 35.952C26.346 35.652 25.848 35.268 25.512 34.8C25.176 34.332 25.008 33.738 25.008 33.018C25.008 32.274 25.218 31.608 25.638 31.02C26.058 30.432 26.64 29.976 27.384 29.652C28.14 29.316 28.986 29.148 29.922 29.148C31.638 29.148 33.036 29.604 34.116 30.516C34.272 30.648 34.38 30.78 34.44 30.912C34.512 31.032 34.548 31.188 34.548 31.38C34.548 31.632 34.47 31.854 34.314 32.046C34.17 32.226 33.996 32.316 33.792 32.316C33.672 32.316 33.558 32.298 33.45 32.262C33.354 32.226 33.222 32.16 33.054 32.064C32.562 31.704 32.082 31.44 31.614 31.272C31.158 31.092 30.594 31.002 29.922 31.002C29.106 31.002 28.458 31.17 27.978 31.506C27.51 31.83 27.276 32.286 27.276 32.874C27.276 33.366 27.486 33.744 27.906 34.008C28.326 34.272 29.04 34.518 30.048 34.746C31.116 34.986 31.98 35.256 32.64 35.556C33.312 35.844 33.822 36.216 34.17 36.672C34.53 37.128 34.71 37.698 34.71 38.382C34.71 39.126 34.5 39.786 34.08 40.362C33.672 40.926 33.09 41.37 32.334 41.694C31.59 42.006 30.732 42.162 29.76 42.162ZM43.5965 33.018C43.9445 33.018 44.2205 33.114 44.4245 33.306C44.6285 33.498 44.7305 33.756 44.7305 34.08V41.064C44.7305 41.376 44.6225 41.628 44.4065 41.82C44.2025 42.012 43.9325 42.108 43.5965 42.108C43.2725 42.108 43.0145 42.018 42.8225 41.838C42.6305 41.658 42.5345 41.412 42.5345 41.1V40.65C42.2585 41.13 41.8865 41.502 41.4185 41.766C40.9505 42.018 40.4225 42.144 39.8345 42.144C37.6745 42.144 36.5945 40.932 36.5945 38.508V34.08C36.5945 33.756 36.6965 33.498 36.9005 33.306C37.1045 33.114 37.3745 33.018 37.7105 33.018C38.0585 33.018 38.3345 33.114 38.5385 33.306C38.7425 33.498 38.8445 33.756 38.8445 34.08V38.526C38.8445 39.15 38.9705 39.612 39.2225 39.912C39.4745 40.212 39.8705 40.362 40.4105 40.362C41.0345 40.362 41.5325 40.158 41.9045 39.75C42.2885 39.33 42.4805 38.778 42.4805 38.094V34.08C42.4805 33.756 42.5825 33.498 42.7865 33.306C42.9905 33.114 43.2605 33.018 43.5965 33.018ZM52.1303 32.982C52.8983 32.982 53.5763 33.168 54.1643 33.54C54.7523 33.912 55.2083 34.44 55.5323 35.124C55.8683 35.808 56.0363 36.606 56.0363 37.518C56.0363 38.43 55.8683 39.24 55.5323 39.948C55.2083 40.644 54.7463 41.184 54.1463 41.568C53.5583 41.952 52.8863 42.144 52.1303 42.144C51.4943 42.144 50.9243 42.006 50.4203 41.73C49.9283 41.454 49.5503 41.07 49.2863 40.578V41.028C49.2863 41.352 49.1843 41.61 48.9803 41.802C48.7763 41.994 48.5063 42.09 48.1703 42.09C47.8343 42.09 47.5643 41.994 47.3603 41.802C47.1683 41.61 47.0723 41.352 47.0723 41.028V30.264C47.0723 29.952 47.1743 29.7 47.3783 29.508C47.5943 29.316 47.8703 29.22 48.2063 29.22C48.5423 29.22 48.8123 29.31 49.0163 29.49C49.2203 29.67 49.3223 29.916 49.3223 30.228V34.476C49.5863 33.996 49.9643 33.63 50.4563 33.378C50.9483 33.114 51.5063 32.982 52.1303 32.982ZM51.5363 40.398C52.2443 40.398 52.7963 40.146 53.1923 39.642C53.5883 39.138 53.7863 38.43 53.7863 37.518C53.7863 36.618 53.5883 35.928 53.1923 35.448C52.8083 34.968 52.2563 34.728 51.5363 34.728C50.8163 34.728 50.2583 34.974 49.8623 35.466C49.4783 35.946 49.2863 36.642 49.2863 37.554C49.2863 38.466 49.4783 39.168 49.8623 39.66C50.2583 40.152 50.8163 40.398 51.5363 40.398ZM61.7889 42.144C60.9129 42.144 60.1389 41.958 59.4669 41.586C58.8069 41.214 58.2969 40.686 57.9369 40.002C57.5769 39.318 57.3969 38.52 57.3969 37.608C57.3969 36.696 57.5829 35.892 57.9549 35.196C58.3389 34.488 58.8729 33.942 59.5569 33.558C60.2409 33.174 61.0269 32.982 61.9149 32.982C62.3829 32.982 62.8509 33.048 63.3189 33.18C63.7989 33.312 64.2189 33.492 64.5789 33.72C64.9629 33.972 65.1549 34.29 65.1549 34.674C65.1549 34.938 65.0889 35.154 64.9569 35.322C64.8369 35.478 64.6749 35.556 64.4709 35.556C64.3389 35.556 64.2009 35.526 64.0569 35.466C63.9129 35.406 63.7689 35.334 63.6249 35.25C63.3609 35.094 63.1089 34.974 62.8689 34.89C62.6289 34.794 62.3529 34.746 62.0409 34.746C61.2969 34.746 60.7209 34.992 60.3129 35.484C59.9169 35.964 59.7189 36.66 59.7189 37.572C59.7189 38.472 59.9169 39.168 60.3129 39.66C60.7209 40.14 61.2969 40.38 62.0409 40.38C62.3409 40.38 62.6049 40.338 62.8329 40.254C63.0729 40.158 63.3369 40.032 63.6249 39.876C63.8049 39.768 63.9609 39.69 64.0929 39.642C64.2249 39.582 64.3569 39.552 64.4889 39.552C64.6809 39.552 64.8429 39.636 64.9749 39.804C65.1069 39.972 65.1729 40.182 65.1729 40.434C65.1729 40.638 65.1249 40.818 65.0289 40.974C64.9449 41.118 64.8009 41.25 64.5969 41.37C64.2249 41.61 63.7929 41.802 63.3009 41.946C62.8089 42.078 62.3049 42.144 61.7889 42.144ZM71.586 33.018C71.898 32.994 72.144 33.06 72.324 33.216C72.504 33.372 72.594 33.606 72.594 33.918C72.594 34.242 72.516 34.482 72.36 34.638C72.204 34.794 71.922 34.896 71.514 34.944L70.974 34.998C70.266 35.07 69.744 35.31 69.408 35.718C69.084 36.126 68.922 36.636 68.922 37.248V41.028C68.922 41.376 68.814 41.646 68.598 41.838C68.382 42.018 68.112 42.108 67.788 42.108C67.464 42.108 67.194 42.018 66.978 41.838C66.774 41.646 66.672 41.376 66.672 41.028V34.062C66.672 33.726 66.774 33.468 66.978 33.288C67.194 33.108 67.458 33.018 67.77 33.018C68.082 33.018 68.334 33.108 68.526 33.288C68.718 33.456 68.814 33.702 68.814 34.026V34.746C69.042 34.218 69.378 33.81 69.822 33.522C70.278 33.234 70.782 33.072 71.334 33.036L71.586 33.018ZM74.6786 42.108C74.3546 42.108 74.0846 42.018 73.8686 41.838C73.6646 41.646 73.5626 41.376 73.5626 41.028V34.08C73.5626 33.732 73.6646 33.468 73.8686 33.288C74.0846 33.108 74.3546 33.018 74.6786 33.018C75.0026 33.018 75.2726 33.108 75.4886 33.288C75.7046 33.468 75.8126 33.732 75.8126 34.08V41.028C75.8126 41.376 75.7046 41.646 75.4886 41.838C75.2726 42.018 75.0026 42.108 74.6786 42.108ZM74.6786 31.416C74.2706 31.416 73.9466 31.308 73.7066 31.092C73.4666 30.864 73.3466 30.57 73.3466 30.21C73.3466 29.85 73.4666 29.562 73.7066 29.346C73.9466 29.13 74.2706 29.022 74.6786 29.022C75.0746 29.022 75.3926 29.13 75.6326 29.346C75.8846 29.562 76.0106 29.85 76.0106 30.21C76.0106 30.57 75.8906 30.864 75.6506 31.092C75.4106 31.308 75.0866 31.416 74.6786 31.416ZM83.1909 32.982C83.9469 32.982 84.6189 33.174 85.2069 33.558C85.8069 33.942 86.2689 34.488 86.5929 35.196C86.9289 35.892 87.0969 36.696 87.0969 37.608C87.0969 38.52 86.9289 39.318 86.5929 40.002C86.2689 40.686 85.8129 41.214 85.2249 41.586C84.6369 41.958 83.9589 42.144 83.1909 42.144C82.5669 42.144 82.0089 42.012 81.5169 41.748C81.0249 41.484 80.6469 41.118 80.3829 40.65V44.322C80.3829 44.634 80.2809 44.88 80.0769 45.06C79.8729 45.24 79.6029 45.33 79.2669 45.33C78.9309 45.33 78.6549 45.234 78.4389 45.042C78.2349 44.85 78.1329 44.598 78.1329 44.286V34.08C78.1329 33.756 78.2289 33.498 78.4209 33.306C78.6249 33.114 78.8949 33.018 79.2309 33.018C79.5669 33.018 79.8369 33.114 80.0409 33.306C80.2449 33.498 80.3469 33.756 80.3469 34.08V34.53C80.6109 34.038 80.9889 33.66 81.4809 33.396C81.9849 33.12 82.5549 32.982 83.1909 32.982ZM82.5969 40.398C83.3049 40.398 83.8569 40.158 84.2529 39.678C84.6489 39.186 84.8469 38.496 84.8469 37.608C84.8469 36.696 84.6489 35.988 84.2529 35.484C83.8569 34.98 83.3049 34.728 82.5969 34.728C81.8769 34.728 81.3189 34.974 80.9229 35.466C80.5389 35.958 80.3469 36.66 80.3469 37.572C80.3469 38.472 80.5389 39.168 80.9229 39.66C81.3189 40.152 81.8769 40.398 82.5969 40.398ZM93.4627 40.434C94.0627 40.47 94.3627 40.74 94.3627 41.244C94.3627 41.532 94.2427 41.754 94.0027 41.91C93.7747 42.054 93.4447 42.114 93.0127 42.09L92.5267 42.054C90.5107 41.91 89.5027 40.83 89.5027 38.814V34.89H88.6027C88.2787 34.89 88.0267 34.818 87.8467 34.674C87.6787 34.53 87.5947 34.32 87.5947 34.044C87.5947 33.768 87.6787 33.558 87.8467 33.414C88.0267 33.27 88.2787 33.198 88.6027 33.198H89.5027V31.542C89.5027 31.218 89.6047 30.96 89.8087 30.768C90.0127 30.576 90.2887 30.48 90.6367 30.48C90.9727 30.48 91.2427 30.576 91.4467 30.768C91.6507 30.96 91.7527 31.218 91.7527 31.542V33.198H93.2827C93.6067 33.198 93.8527 33.27 94.0207 33.414C94.2007 33.558 94.2907 33.768 94.2907 34.044C94.2907 34.32 94.2007 34.53 94.0207 34.674C93.8527 34.818 93.6067 34.89 93.2827 34.89H91.7527V38.976C91.7527 39.864 92.1607 40.338 92.9767 40.398L93.4627 40.434ZM96.6512 42.108C96.3272 42.108 96.0572 42.018 95.8412 41.838C95.6372 41.646 95.5352 41.376 95.5352 41.028V34.08C95.5352 33.732 95.6372 33.468 95.8412 33.288C96.0572 33.108 96.3272 33.018 96.6512 33.018C96.9752 33.018 97.2452 33.108 97.4612 33.288C97.6772 33.468 97.7852 33.732 97.7852 34.08V41.028C97.7852 41.376 97.6772 41.646 97.4612 41.838C97.2452 42.018 96.9752 42.108 96.6512 42.108ZM96.6512 31.416C96.2432 31.416 95.9192 31.308 95.6792 31.092C95.4392 30.864 95.3192 30.57 95.3192 30.21C95.3192 29.85 95.4392 29.562 95.6792 29.346C95.9192 29.13 96.2432 29.022 96.6512 29.022C97.0472 29.022 97.3652 29.13 97.6052 29.346C97.8572 29.562 97.9832 29.85 97.9832 30.21C97.9832 30.57 97.8632 30.864 97.6232 31.092C97.3832 31.308 97.0592 31.416 96.6512 31.416ZM104.12 42.144C103.22 42.144 102.428 41.958 101.744 41.586C101.072 41.214 100.55 40.68 100.178 39.984C99.8055 39.288 99.6195 38.478 99.6195 37.554C99.6195 36.63 99.8055 35.826 100.178 35.142C100.55 34.446 101.072 33.912 101.744 33.54C102.428 33.168 103.22 32.982 104.12 32.982C105.02 32.982 105.806 33.168 106.478 33.54C107.162 33.912 107.684 34.446 108.044 35.142C108.416 35.826 108.602 36.63 108.602 37.554C108.602 38.478 108.416 39.288 108.044 39.984C107.684 40.68 107.162 41.214 106.478 41.586C105.806 41.958 105.02 42.144 104.12 42.144ZM104.102 40.398C104.834 40.398 105.392 40.158 105.776 39.678C106.16 39.198 106.352 38.49 106.352 37.554C106.352 36.63 106.16 35.928 105.776 35.448C105.392 34.956 104.84 34.71 104.12 34.71C103.4 34.71 102.842 34.956 102.446 35.448C102.062 35.928 101.87 36.63 101.87 37.554C101.87 38.49 102.062 39.198 102.446 39.678C102.83 40.158 103.382 40.398 104.102 40.398ZM115.571 32.982C116.627 32.982 117.413 33.282 117.929 33.882C118.445 34.482 118.703 35.388 118.703 36.6V41.028C118.703 41.364 118.601 41.628 118.397 41.82C118.205 42.012 117.935 42.108 117.587 42.108C117.239 42.108 116.963 42.012 116.759 41.82C116.555 41.628 116.453 41.364 116.453 41.028V36.726C116.453 36.042 116.321 35.544 116.057 35.232C115.805 34.92 115.403 34.764 114.851 34.764C114.203 34.764 113.681 34.968 113.285 35.376C112.901 35.784 112.709 36.33 112.709 37.014V41.028C112.709 41.364 112.607 41.628 112.403 41.82C112.199 42.012 111.923 42.108 111.575 42.108C111.227 42.108 110.951 42.012 110.747 41.82C110.555 41.628 110.459 41.364 110.459 41.028V34.062C110.459 33.75 110.561 33.498 110.765 33.306C110.969 33.114 111.245 33.018 111.593 33.018C111.905 33.018 112.157 33.114 112.349 33.306C112.553 33.486 112.655 33.726 112.655 34.026V34.512C112.955 34.02 113.357 33.642 113.861 33.378C114.365 33.114 114.935 32.982 115.571 32.982Z" fill="white"/>
<path d="M34.188 72.418C34.188 73.378 33.852 74.188 33.18 74.848C32.52 75.508 31.626 75.922 30.498 76.09V77.224C30.498 77.5 30.414 77.722 30.246 77.89C30.078 78.07 29.856 78.16 29.58 78.16C29.304 78.16 29.082 78.07 28.914 77.89C28.746 77.722 28.662 77.5 28.662 77.224V76.126C27.978 76.066 27.312 75.922 26.664 75.694C26.016 75.466 25.458 75.166 24.99 74.794C24.834 74.686 24.726 74.566 24.666 74.434C24.606 74.302 24.576 74.14 24.576 73.948C24.576 73.696 24.648 73.474 24.792 73.282C24.948 73.09 25.122 72.994 25.314 72.994C25.434 72.994 25.542 73.018 25.638 73.066C25.746 73.102 25.884 73.168 26.052 73.264C26.604 73.624 27.144 73.888 27.672 74.056C28.212 74.224 28.776 74.308 29.364 74.308C30.168 74.308 30.786 74.152 31.218 73.84C31.662 73.528 31.884 73.078 31.884 72.49C31.884 72.142 31.764 71.86 31.524 71.644C31.284 71.428 30.984 71.26 30.624 71.14C30.264 71.008 29.76 70.858 29.112 70.69C28.212 70.462 27.48 70.234 26.916 70.006C26.352 69.766 25.866 69.406 25.458 68.926C25.05 68.446 24.846 67.798 24.846 66.982C24.846 66.01 25.194 65.182 25.89 64.498C26.586 63.814 27.498 63.388 28.626 63.22V62.086C28.626 61.81 28.71 61.588 28.878 61.42C29.046 61.24 29.268 61.15 29.544 61.15C29.82 61.15 30.042 61.24 30.21 61.42C30.378 61.588 30.462 61.81 30.462 62.086V63.202C31.674 63.358 32.718 63.796 33.594 64.516C33.882 64.732 34.026 65.014 34.026 65.362C34.026 65.614 33.948 65.836 33.792 66.028C33.648 66.22 33.474 66.316 33.27 66.316C33.162 66.316 33.054 66.298 32.946 66.262C32.85 66.226 32.718 66.154 32.55 66.046C32.058 65.698 31.59 65.44 31.146 65.272C30.714 65.092 30.198 65.002 29.598 65.002C28.854 65.002 28.26 65.17 27.816 65.506C27.372 65.83 27.15 66.28 27.15 66.856C27.15 67.252 27.276 67.576 27.528 67.828C27.78 68.068 28.098 68.254 28.482 68.386C28.866 68.518 29.388 68.668 30.048 68.836C30.924 69.052 31.638 69.274 32.19 69.502C32.742 69.73 33.21 70.078 33.594 70.546C33.99 71.002 34.188 71.626 34.188 72.418ZM40.859 67.882C41.651 67.882 42.347 68.056 42.947 68.404C43.559 68.74 44.033 69.214 44.369 69.826C44.705 70.438 44.873 71.14 44.873 71.932C44.873 72.76 44.681 73.492 44.297 74.128C43.925 74.764 43.391 75.262 42.695 75.622C42.011 75.97 41.219 76.144 40.319 76.144C39.575 76.144 38.843 76.024 38.123 75.784C37.415 75.532 36.809 75.196 36.305 74.776C36.029 74.536 35.891 74.254 35.891 73.93C35.891 73.666 35.963 73.444 36.107 73.264C36.263 73.072 36.443 72.976 36.647 72.976C36.767 72.976 36.881 73 36.989 73.048C37.097 73.084 37.223 73.15 37.367 73.246C37.847 73.582 38.315 73.84 38.771 74.02C39.227 74.2 39.713 74.29 40.229 74.29C41.021 74.29 41.627 74.092 42.047 73.696C42.467 73.3 42.677 72.736 42.677 72.004C42.677 71.296 42.461 70.738 42.029 70.33C41.609 69.91 41.027 69.7 40.283 69.7C39.815 69.7 39.395 69.766 39.023 69.898C38.663 70.03 38.291 70.252 37.907 70.564C37.679 70.72 37.445 70.798 37.205 70.798C36.965 70.798 36.761 70.726 36.593 70.582C36.425 70.438 36.341 70.246 36.341 70.006V64.39C36.341 64.054 36.437 63.79 36.629 63.598C36.821 63.406 37.091 63.31 37.439 63.31H43.433C44.153 63.31 44.513 63.61 44.513 64.21C44.513 64.81 44.153 65.11 43.433 65.11H38.609V68.53C39.221 68.098 39.971 67.882 40.859 67.882ZM50.9859 76.162C49.4859 76.162 48.3399 75.61 47.5479 74.506C46.7559 73.39 46.3599 71.77 46.3599 69.646C46.3599 67.534 46.7559 65.926 47.5479 64.822C48.3399 63.706 49.4859 63.148 50.9859 63.148C52.4859 63.148 53.6319 63.706 54.4239 64.822C55.2159 65.926 55.6119 67.534 55.6119 69.646C55.6119 71.758 55.2159 73.372 54.4239 74.488C53.6319 75.604 52.4859 76.162 50.9859 76.162ZM50.9859 74.344C51.8019 74.344 52.3959 73.972 52.7679 73.228C53.1399 72.472 53.3259 71.278 53.3259 69.646C53.3259 68.002 53.1399 66.814 52.7679 66.082C52.3959 65.338 51.8019 64.966 50.9859 64.966C50.1699 64.966 49.5759 65.338 49.2039 66.082C48.8319 66.826 48.6459 68.014 48.6459 69.646C48.6459 71.278 48.8319 72.472 49.2039 73.228C49.5759 73.972 50.1699 74.344 50.9859 74.344ZM61.7789 76.162C60.2789 76.162 59.1329 75.61 58.3409 74.506C57.5489 73.39 57.1529 71.77 57.1529 69.646C57.1529 67.534 57.5489 65.926 58.3409 64.822C59.1329 63.706 60.2789 63.148 61.7789 63.148C63.2789 63.148 64.4249 63.706 65.2169 64.822C66.0089 65.926 66.4049 67.534 66.4049 69.646C66.4049 71.758 66.0089 73.372 65.2169 74.488C64.4249 75.604 63.2789 76.162 61.7789 76.162ZM61.7789 74.344C62.5949 74.344 63.1889 73.972 63.5609 73.228C63.9329 72.472 64.1189 71.278 64.1189 69.646C64.1189 68.002 63.9329 66.814 63.5609 66.082C63.1889 65.338 62.5949 64.966 61.7789 64.966C60.9629 64.966 60.3689 65.338 59.9969 66.082C59.6249 66.826 59.4389 68.014 59.4389 69.646C59.4389 71.278 59.6249 72.472 59.9969 73.228C60.3689 73.972 60.9629 74.344 61.7789 74.344ZM72.463 76.666C72.415 76.798 72.349 76.894 72.265 76.954C72.181 77.026 72.085 77.062 71.977 77.062C71.845 77.062 71.725 77.008 71.617 76.9C71.509 76.804 71.455 76.678 71.455 76.522C71.455 76.486 71.467 76.42 71.491 76.324L75.793 62.95C75.841 62.818 75.907 62.722 75.991 62.662C76.075 62.59 76.171 62.554 76.279 62.554C76.411 62.554 76.525 62.608 76.621 62.716C76.729 62.812 76.783 62.932 76.783 63.076C76.783 63.124 76.771 63.196 76.747 63.292L72.463 76.666ZM90.8682 72.652C90.8682 73.588 90.5262 74.374 89.8422 75.01C89.1702 75.634 88.2762 76 87.1602 76.108V77.62C87.1602 77.776 87.1122 77.902 87.0162 77.998C86.9322 78.106 86.8122 78.16 86.6562 78.16C86.5122 78.16 86.3922 78.106 86.2962 77.998C86.2002 77.902 86.1522 77.776 86.1522 77.62V76.126C85.4202 76.09 84.6942 75.946 83.9742 75.694C83.2542 75.442 82.6602 75.082 82.1922 74.614C82.0482 74.482 81.9762 74.308 81.9762 74.092C81.9762 73.96 82.0062 73.846 82.0662 73.75C82.1382 73.654 82.2282 73.606 82.3362 73.606C82.4562 73.606 82.5942 73.666 82.7502 73.786C83.9862 74.698 85.2462 75.154 86.5302 75.154C87.5382 75.154 88.3242 74.938 88.8882 74.506C89.4642 74.062 89.7522 73.444 89.7522 72.652C89.7522 72.184 89.6082 71.806 89.3202 71.518C89.0322 71.218 88.6722 70.99 88.2402 70.834C87.8082 70.678 87.2202 70.504 86.4762 70.312C85.5642 70.084 84.8262 69.862 84.2622 69.646C83.7102 69.418 83.2362 69.076 82.8402 68.62C82.4562 68.152 82.2642 67.528 82.2642 66.748C82.2642 66.1 82.4262 65.518 82.7502 65.002C83.0742 64.474 83.5302 64.054 84.1182 63.742C84.7182 63.418 85.3962 63.232 86.1522 63.184V61.69C86.1522 61.534 86.1942 61.408 86.2782 61.312C86.3742 61.204 86.5002 61.15 86.6562 61.15C86.8002 61.15 86.9142 61.204 86.9982 61.312C87.0942 61.408 87.1422 61.534 87.1422 61.69V63.184C87.8022 63.244 88.4382 63.4 89.0502 63.652C89.6622 63.904 90.1722 64.252 90.5802 64.696C90.7362 64.852 90.8142 65.026 90.8142 65.218C90.8142 65.35 90.7722 65.464 90.6882 65.56C90.6162 65.656 90.5322 65.704 90.4362 65.704C90.2922 65.704 90.1542 65.644 90.0222 65.524C89.4582 65.044 88.9182 64.696 88.4022 64.48C87.8862 64.264 87.2802 64.156 86.5842 64.156C85.6002 64.156 84.8202 64.39 84.2442 64.858C83.6682 65.314 83.3802 65.938 83.3802 66.73C83.3802 67.27 83.5362 67.708 83.8482 68.044C84.1602 68.38 84.5442 68.632 85.0002 68.8C85.4682 68.968 86.0862 69.148 86.8542 69.34C87.7302 69.556 88.4322 69.772 88.9602 69.988C89.5002 70.192 89.9502 70.51 90.3102 70.942C90.6822 71.362 90.8682 71.932 90.8682 72.652ZM101.085 75.028C101.241 75.028 101.367 75.076 101.463 75.172C101.559 75.256 101.607 75.37 101.607 75.514C101.607 75.838 101.433 76 101.085 76H93.9211C93.7531 76 93.6211 75.952 93.5251 75.856C93.4291 75.76 93.3811 75.646 93.3811 75.514C93.3811 75.346 93.4411 75.202 93.5611 75.082L98.0071 70.132C98.6431 69.4 99.1051 68.752 99.3931 68.188C99.6811 67.624 99.8251 67.06 99.8251 66.496C99.8251 65.74 99.6031 65.158 99.1591 64.75C98.7271 64.342 98.1151 64.138 97.3231 64.138C96.7111 64.138 96.1291 64.252 95.5771 64.48C95.0371 64.696 94.4791 65.044 93.9031 65.524C93.7711 65.644 93.6331 65.704 93.4891 65.704C93.3931 65.704 93.3091 65.656 93.2371 65.56C93.1651 65.464 93.1291 65.35 93.1291 65.218C93.1291 65.014 93.2071 64.84 93.3631 64.696C93.8431 64.228 94.4371 63.856 95.1451 63.58C95.8531 63.304 96.5791 63.166 97.3231 63.166C98.4391 63.166 99.3211 63.46 99.9691 64.048C100.617 64.624 100.941 65.422 100.941 66.442C100.941 67.174 100.773 67.882 100.437 68.566C100.101 69.25 99.5491 70.018 98.7811 70.87L94.9831 75.028H101.085ZM108.062 76.144C106.634 76.144 105.548 75.598 104.804 74.506C104.06 73.402 103.688 71.788 103.688 69.664C103.688 67.528 104.06 65.914 104.804 64.822C105.548 63.718 106.634 63.166 108.062 63.166C109.49 63.166 110.576 63.718 111.32 64.822C112.064 65.914 112.436 67.522 112.436 69.646C112.436 71.77 112.064 73.384 111.32 74.488C110.576 75.592 109.49 76.144 108.062 76.144ZM108.062 75.154C109.166 75.154 109.976 74.71 110.492 73.822C111.02 72.922 111.284 71.53 111.284 69.646C111.284 67.762 111.02 66.376 110.492 65.488C109.976 64.6 109.166 64.156 108.062 64.156C106.958 64.156 106.142 64.6 105.614 65.488C105.098 66.376 104.84 67.762 104.84 69.646C104.84 71.518 105.104 72.904 105.632 73.804C106.16 74.704 106.97 75.154 108.062 75.154ZM118.855 76.144C117.427 76.144 116.341 75.598 115.597 74.506C114.853 73.402 114.481 71.788 114.481 69.664C114.481 67.528 114.853 65.914 115.597 64.822C116.341 63.718 117.427 63.166 118.855 63.166C120.283 63.166 121.369 63.718 122.113 64.822C122.857 65.914 123.229 67.522 123.229 69.646C123.229 71.77 122.857 73.384 122.113 74.488C121.369 75.592 120.283 76.144 118.855 76.144ZM118.855 75.154C119.959 75.154 120.769 74.71 121.285 73.822C121.813 72.922 122.077 71.53 122.077 69.646C122.077 67.762 121.813 66.376 121.285 65.488C120.769 64.6 119.959 64.156 118.855 64.156C117.751 64.156 116.935 64.6 116.407 65.488C115.891 66.376 115.633 67.762 115.633 69.646C115.633 71.518 115.897 72.904 116.425 73.804C116.953 74.704 117.763 75.154 118.855 75.154ZM129.648 76.144C128.22 76.144 127.134 75.598 126.39 74.506C125.646 73.402 125.274 71.788 125.274 69.664C125.274 67.528 125.646 65.914 126.39 64.822C127.134 63.718 128.22 63.166 129.648 63.166C131.076 63.166 132.162 63.718 132.906 64.822C133.65 65.914 134.022 67.522 134.022 69.646C134.022 71.77 133.65 73.384 132.906 74.488C132.162 75.592 131.076 76.144 129.648 76.144ZM129.648 75.154C130.752 75.154 131.562 74.71 132.078 73.822C132.606 72.922 132.87 71.53 132.87 69.646C132.87 67.762 132.606 66.376 132.078 65.488C131.562 64.6 130.752 64.156 129.648 64.156C128.544 64.156 127.728 64.6 127.2 65.488C126.684 66.376 126.426 67.762 126.426 69.646C126.426 71.518 126.69 72.904 127.218 73.804C127.746 74.704 128.556 75.154 129.648 75.154Z" fill="white"/>
</svg>
