<svg width="32" height="32" viewBox="0 0 32 32" fill="none" xmlns="http://www.w3.org/2000/svg">
<path d="M5.33334 28H26.6667C27.7275 28 28.745 27.5786 29.4951 26.8284C30.2453 26.0783 30.6667 25.0609 30.6667 24V8C30.6667 6.93913 30.2453 5.92172 29.4951 5.17157C28.745 4.42143 27.7275 4 26.6667 4H5.33334C4.27248 4 3.25506 4.42143 2.50492 5.17157C1.75477 5.92172 1.33334 6.93913 1.33334 8V24C1.33334 25.0609 1.75477 26.0783 2.50492 26.8284C3.25506 27.5786 4.27248 28 5.33334 28ZM4.00001 8C4.00001 7.64638 4.14049 7.30724 4.39053 7.05719C4.64058 6.80714 4.97972 6.66667 5.33334 6.66667H26.6667C27.0203 6.66667 27.3594 6.80714 27.6095 7.05719C27.8595 7.30724 28 7.64638 28 8V24C28 24.3536 27.8595 24.6928 27.6095 24.9428C27.3594 25.1929 27.0203 25.3333 26.6667 25.3333H5.33334C4.97972 25.3333 4.64058 25.1929 4.39053 24.9428C4.14049 24.6928 4.00001 24.3536 4.00001 24V8Z" fill="#9BABC5"/>
<path d="M8.00002 22.6667H12C12.3536 22.6667 12.6928 22.5262 12.9428 22.2762C13.1929 22.0261 13.3334 21.687 13.3334 21.3333C13.3334 20.9797 13.1929 20.6406 12.9428 20.3905C12.6928 20.1405 12.3536 20 12 20H8.00002C7.6464 20 7.30726 20.1405 7.05721 20.3905C6.80716 20.6406 6.66669 20.9797 6.66669 21.3333C6.66669 21.687 6.80716 22.0261 7.05721 22.2762C7.30726 22.5262 7.6464 22.6667 8.00002 22.6667Z" fill="#9BABC5"/>
<path d="M8.00002 18.6667H16C16.3537 18.6667 16.6928 18.5262 16.9428 18.2762C17.1929 18.0261 17.3334 17.687 17.3334 17.3333C17.3334 16.9797 17.1929 16.6406 16.9428 16.3905C16.6928 16.1405 16.3537 16 16 16H8.00002C7.6464 16 7.30726 16.1405 7.05721 16.3905C6.80716 16.6406 6.66669 16.9797 6.66669 17.3333C6.66669 17.687 6.80716 18.0261 7.05721 18.2762C7.30726 18.5262 7.6464 18.6667 8.00002 18.6667Z" fill="#9BABC5"/>
</svg>
