<svg width="141" height="141" viewBox="0 0 141 141" fill="none" xmlns="http://www.w3.org/2000/svg">
<path d="M141 70.5C141 79.7582 139.176 88.9257 135.633 97.4792C132.091 106.033 126.898 113.804 120.351 120.351C113.804 126.898 106.033 132.091 97.4792 135.634C88.9257 139.176 79.7582 141 70.5 141V119.85C76.9807 119.85 83.398 118.574 89.3854 116.093C95.3728 113.613 100.813 109.978 105.396 105.396C109.978 100.813 113.613 95.3728 116.093 89.3854C118.574 83.398 119.85 76.9807 119.85 70.5H141Z" fill="#9BABC5" fill-opacity="0.25"/>
<path d="M141 70.5C141 56.5564 136.865 42.926 129.119 31.3323C121.372 19.7386 110.361 10.7025 97.4792 5.36649C84.597 0.0305148 70.4218 -1.36562 56.7461 1.35464C43.0705 4.0749 30.5086 10.7894 20.649 20.649C10.7894 30.5086 4.0749 43.0705 1.35464 56.7461C-1.36562 70.4218 0.0305149 84.597 5.36649 97.4792C10.7025 110.361 19.7386 121.372 31.3323 129.119C42.926 136.865 56.5564 141 70.5 141V119.85C60.7395 119.85 51.1982 116.956 43.0826 111.533C34.967 106.11 28.6417 98.403 24.9065 89.3854C21.1714 80.3679 20.1941 70.4453 22.0982 60.8723C24.0024 51.2993 28.7026 42.506 35.6043 35.6043C42.506 28.7026 51.2993 24.0024 60.8723 22.0982C70.4453 20.1941 80.3679 21.1714 89.3854 24.9065C98.403 28.6417 106.11 34.967 111.533 43.0826C116.956 51.1982 119.85 60.7395 119.85 70.5H141Z" fill="#428777"/>
<path d="M60.054 63.31C60.366 63.31 60.606 63.4 60.774 63.58C60.942 63.748 61.026 63.97 61.026 64.246C61.026 64.522 60.942 64.81 60.774 65.11L55.032 75.532C54.792 75.94 54.462 76.144 54.042 76.144C53.754 76.144 53.496 76.048 53.268 75.856C53.052 75.652 52.944 75.406 52.944 75.118C52.944 74.914 53.004 74.71 53.124 74.506L58.29 65.182H52.854C52.134 65.182 51.774 64.876 51.774 64.264C51.774 63.628 52.134 63.31 52.854 63.31H60.054ZM67.859 67.882C68.651 67.882 69.347 68.056 69.947 68.404C70.559 68.74 71.033 69.214 71.369 69.826C71.705 70.438 71.873 71.14 71.873 71.932C71.873 72.76 71.681 73.492 71.297 74.128C70.925 74.764 70.391 75.262 69.695 75.622C69.011 75.97 68.219 76.144 67.319 76.144C66.575 76.144 65.843 76.024 65.123 75.784C64.415 75.532 63.809 75.196 63.305 74.776C63.029 74.536 62.891 74.254 62.891 73.93C62.891 73.666 62.963 73.444 63.107 73.264C63.263 73.072 63.443 72.976 63.647 72.976C63.767 72.976 63.881 73 63.989 73.048C64.097 73.084 64.223 73.15 64.367 73.246C64.847 73.582 65.315 73.84 65.771 74.02C66.227 74.2 66.713 74.29 67.229 74.29C68.021 74.29 68.627 74.092 69.047 73.696C69.467 73.3 69.677 72.736 69.677 72.004C69.677 71.296 69.461 70.738 69.029 70.33C68.609 69.91 68.027 69.7 67.283 69.7C66.815 69.7 66.395 69.766 66.023 69.898C65.663 70.03 65.291 70.252 64.907 70.564C64.679 70.72 64.445 70.798 64.205 70.798C63.965 70.798 63.761 70.726 63.593 70.582C63.425 70.438 63.341 70.246 63.341 70.006V64.39C63.341 64.054 63.437 63.79 63.629 63.598C63.821 63.406 64.091 63.31 64.439 63.31H70.433C71.153 63.31 71.513 63.61 71.513 64.21C71.513 64.81 71.153 65.11 70.433 65.11H65.609V68.53C66.221 68.098 66.971 67.882 67.859 67.882ZM78.5619 75.748C78.4539 75.94 78.3219 76.084 78.1659 76.18C78.0099 76.276 77.8539 76.324 77.6979 76.324C77.4819 76.324 77.2899 76.246 77.1219 76.09C76.9659 75.934 76.8879 75.736 76.8879 75.496C76.8879 75.292 76.9479 75.088 77.0679 74.884L83.6199 63.562C83.7279 63.37 83.8599 63.226 84.0159 63.13C84.1719 63.034 84.3279 62.986 84.4839 62.986C84.6999 62.986 84.8859 63.064 85.0419 63.22C85.2099 63.376 85.2939 63.574 85.2939 63.814C85.2939 64.018 85.2339 64.222 85.1139 64.426L78.5619 75.748ZM76.5639 70.888C75.5559 70.888 74.7699 70.558 74.2059 69.898C73.6419 69.238 73.3599 68.272 73.3599 67C73.3599 65.74 73.6419 64.78 74.2059 64.12C74.7699 63.46 75.5559 63.13 76.5639 63.13C77.5719 63.13 78.3579 63.46 78.9219 64.12C79.4979 64.78 79.7859 65.74 79.7859 67C79.7859 68.272 79.4979 69.238 78.9219 69.898C78.3579 70.558 77.5719 70.888 76.5639 70.888ZM76.5639 69.43C77.0199 69.43 77.3499 69.244 77.5539 68.872C77.7699 68.488 77.8779 67.864 77.8779 67C77.8779 66.16 77.7699 65.548 77.5539 65.164C77.3379 64.78 77.0079 64.588 76.5639 64.588C76.1199 64.588 75.7899 64.78 75.5739 65.164C75.3699 65.536 75.2679 66.148 75.2679 67C75.2679 67.864 75.3699 68.488 75.5739 68.872C75.7899 69.244 76.1199 69.43 76.5639 69.43ZM85.6179 76.126C84.6099 76.126 83.8239 75.796 83.2599 75.136C82.6959 74.476 82.4139 73.504 82.4139 72.22C82.4139 70.96 82.6959 70.006 83.2599 69.358C83.8359 68.698 84.6219 68.368 85.6179 68.368C86.6259 68.368 87.4119 68.698 87.9759 69.358C88.5399 70.018 88.8219 70.978 88.8219 72.238C88.8219 73.51 88.5399 74.476 87.9759 75.136C87.4119 75.796 86.6259 76.126 85.6179 76.126ZM85.6179 74.668C86.0619 74.668 86.3919 74.482 86.6079 74.11C86.8239 73.726 86.9319 73.102 86.9319 72.238C86.9319 71.398 86.8239 70.786 86.6079 70.402C86.3919 70.018 86.0619 69.826 85.6179 69.826C85.1739 69.826 84.8439 70.018 84.6279 70.402C84.4119 70.786 84.3039 71.398 84.3039 72.238C84.3039 73.102 84.4119 73.726 84.6279 74.11C84.8439 74.482 85.1739 74.668 85.6179 74.668Z" fill="#222132"/>
</svg>
