<svg width="277" height="120" viewBox="0 0 277 120" fill="none" xmlns="http://www.w3.org/2000/svg">
<path d="M230.244 51.795C250.763 54.2002 258.958 92.6581 276 92.6581V120H1V42.6361C18.2409 49.8057 29.172 -2.59614 46.7555 2.32703C66.088 7.7399 72.9514 65.6745 92.511 68.7039C110.653 71.5137 120.236 45.5552 138.267 49.6815C159.421 54.5225 163.181 102.073 184.489 105C203.266 107.58 211.447 49.5916 230.244 51.795Z" fill="url(#paint0_linear_7_767)"/>
<path d="M276 92.6581C258.958 92.6581 250.763 54.2002 230.244 51.795C211.447 49.5916 203.266 107.58 184.489 105C163.181 102.073 159.421 54.5225 138.267 49.6815C120.236 45.5552 110.653 71.5137 92.511 68.7039C72.9514 65.6745 66.0879 7.7399 46.7555 2.32703C29.172 -2.59614 18.2409 49.8057 1 42.6361" stroke="#EE4444" stroke-width="2" stroke-linecap="round"/>
<circle cx="228" cy="52" r="5" fill="#EE4444" stroke="white" stroke-width="2"/>
<defs>
<linearGradient id="paint0_linear_7_767" x1="138.5" y1="2" x2="138.5" y2="120" gradientUnits="userSpaceOnUse">
<stop stop-color="#EE4444" stop-opacity="0.25"/>
<stop offset="1" stop-color="#EE4444" stop-opacity="0"/>
</linearGradient>
</defs>
</svg>
