<svg width="32" height="32" viewBox="0 0 32 32" fill="none" xmlns="http://www.w3.org/2000/svg">
<path d="M18.6667 9.33334H8.00002C7.6464 9.33334 7.30726 9.47382 7.05721 9.72387C6.80716 9.97392 6.66669 10.3131 6.66669 10.6667C6.66669 11.0203 6.80716 11.3594 7.05721 11.6095C7.30726 11.8595 7.6464 12 8.00002 12H18.6667C19.0203 12 19.3594 11.8595 19.6095 11.6095C19.8595 11.3594 20 11.0203 20 10.6667C20 10.3131 19.8595 9.97392 19.6095 9.72387C19.3594 9.47382 19.0203 9.33334 18.6667 9.33334Z" fill="#9BABC5"/>
<path d="M18.6667 14.6667H8.00002C7.6464 14.6667 7.30726 14.8071 7.05721 15.0572C6.80716 15.3072 6.66669 15.6464 6.66669 16C6.66669 16.3536 6.80716 16.6928 7.05721 16.9428C7.30726 17.1929 7.6464 17.3333 8.00002 17.3333H18.6667C19.0203 17.3333 19.3594 17.1929 19.6095 16.9428C19.8595 16.6928 20 16.3536 20 16C20 15.6464 19.8595 15.3072 19.6095 15.0572C19.3594 14.8071 19.0203 14.6667 18.6667 14.6667Z" fill="#9BABC5"/>
<path d="M13.3334 20H8.00002C7.6464 20 7.30726 20.1405 7.05721 20.3905C6.80716 20.6406 6.66669 20.9797 6.66669 21.3333C6.66669 21.687 6.80716 22.0261 7.05721 22.2762C7.30726 22.5262 7.6464 22.6667 8.00002 22.6667H13.3334C13.687 22.6667 14.0261 22.5262 14.2762 22.2762C14.5262 22.0261 14.6667 21.687 14.6667 21.3333C14.6667 20.9797 14.5262 20.6406 14.2762 20.3905C14.0261 20.1405 13.687 20 13.3334 20Z" fill="#9BABC5"/>
<path d="M29.3333 14.6667H25.3333V5.33334C25.3333 4.27248 24.9119 3.25506 24.1618 2.50492C23.4116 1.75477 22.3942 1.33334 21.3333 1.33334H5.33334C4.27248 1.33334 3.25506 1.75477 2.50492 2.50492C1.75477 3.25506 1.33334 4.27248 1.33334 5.33334V26.6667C1.33334 27.7275 1.75477 28.745 2.50492 29.4951C3.25506 30.2453 4.27248 30.6667 5.33334 30.6667H26.6667C27.7275 30.6667 28.745 30.2453 29.4951 29.4951C30.2453 28.745 30.6667 27.7275 30.6667 26.6667V16C30.6667 15.6464 30.5262 15.3073 30.2762 15.0572C30.0261 14.8072 29.687 14.6667 29.3333 14.6667ZM22.6667 28H5.33334C4.97972 28 4.64058 27.8595 4.39053 27.6095C4.14049 27.3594 4.00001 27.0203 4.00001 26.6667V5.33334C4.00001 4.97972 4.14049 4.64058 4.39053 4.39053C4.64058 4.14049 4.97972 4.00001 5.33334 4.00001H21.3333C21.687 4.00001 22.0261 4.14049 22.2762 4.39053C22.5262 4.64058 22.6667 4.97972 22.6667 5.33334V28ZM28 26.6667C28 27.0203 27.8595 27.3594 27.6095 27.6095C27.3594 27.8595 27.0203 28 26.6667 28H25.3333V17.3333H28V26.6667Z" fill="#9BABC5"/>
</svg>
