<svg width="32" height="32" viewBox="0 0 32 32" fill="none" xmlns="http://www.w3.org/2000/svg">
<path d="M22.6667 17.3333H20C18.1072 17.3308 16.2763 18.0073 14.84 19.24C13.4907 18.0204 11.7388 17.3415 9.92001 17.3333H8.74668C6.78162 17.3369 4.89806 18.119 3.50855 19.5086C2.11905 20.8981 1.33687 22.7816 1.33334 24.7467V25.3333C1.33334 25.687 1.47382 26.0261 1.72387 26.2762C1.97392 26.5262 2.31305 26.6667 2.66668 26.6667H29.3333C29.687 26.6667 30.0261 26.5262 30.2762 26.2762C30.5262 26.0261 30.6667 25.687 30.6667 25.3333C30.6667 23.2116 29.8238 21.1768 28.3235 19.6765C26.8232 18.1762 24.7884 17.3333 22.6667 17.3333ZM8.74668 20H9.92001C11.1094 19.9978 12.2544 20.451 13.12 21.2667C12.6294 22.0871 12.2949 22.9912 12.1333 23.9333V24H4.00001C4.18438 22.8769 4.76401 21.8565 5.63437 21.1231C6.50473 20.3896 7.60852 19.9913 8.74668 20ZM14.8667 24C14.887 23.8919 14.9137 23.785 14.9467 23.68C14.9467 23.68 14.9467 23.5733 14.9467 23.52C15.149 22.9727 15.442 22.4634 15.8133 22.0133C16.3142 21.3837 16.9509 20.8755 17.6759 20.5269C18.401 20.1782 19.1955 19.9981 20 20H22.6667C23.8484 20.0009 24.9963 20.3942 25.9303 21.1182C26.8642 21.8422 27.5313 22.8558 27.8267 24H14.8667ZM21.3333 16C22.3882 16 23.4193 15.6872 24.2964 15.1012C25.1734 14.5152 25.857 13.6822 26.2607 12.7077C26.6644 11.7331 26.77 10.6608 26.5642 9.6262C26.3584 8.59163 25.8505 7.64132 25.1046 6.89544C24.3587 6.14956 23.4084 5.64161 22.3738 5.43582C21.3393 5.23004 20.2669 5.33565 19.2924 5.73932C18.3178 6.14299 17.4849 6.82658 16.8988 7.70364C16.3128 8.5807 16 9.61185 16 10.6667C16 12.0812 16.5619 13.4377 17.5621 14.4379C18.5623 15.4381 19.9189 16 21.3333 16ZM21.3333 8.00001C21.8608 8.00001 22.3763 8.15641 22.8149 8.44943C23.2534 8.74244 23.5952 9.15892 23.797 9.64619C23.9989 10.1335 24.0517 10.6696 23.9488 11.1869C23.8459 11.7042 23.5919 12.1794 23.219 12.5523C22.846 12.9252 22.3709 13.1792 21.8536 13.2821C21.3363 13.385 20.8001 13.3322 20.3129 13.1304C19.8256 12.9285 19.4091 12.5867 19.1161 12.1482C18.8231 11.7097 18.6667 11.1941 18.6667 10.6667C18.6667 9.95944 18.9476 9.28116 19.4477 8.78106C19.9478 8.28096 20.6261 8.00001 21.3333 8.00001ZM9.33334 16C10.3882 16 11.4193 15.6872 12.2964 15.1012C13.1734 14.5152 13.857 13.6822 14.2607 12.7077C14.6644 11.7331 14.77 10.6608 14.5642 9.6262C14.3584 8.59163 13.8505 7.64132 13.1046 6.89544C12.3587 6.14956 11.4084 5.64161 10.3738 5.43582C9.33926 5.23004 8.2669 5.33565 7.29237 5.73932C6.31783 6.14299 5.48487 6.82658 4.89884 7.70364C4.3128 8.5807 4.00001 9.61185 4.00001 10.6667C4.00001 12.0812 4.56191 13.4377 5.56211 14.4379C6.5623 15.4381 7.91886 16 9.33334 16ZM9.33334 8.00001C9.86076 8.00001 10.3763 8.15641 10.8149 8.44943C11.2534 8.74244 11.5952 9.15892 11.797 9.64619C11.9989 10.1335 12.0517 10.6696 11.9488 11.1869C11.8459 11.7042 11.5919 12.1794 11.219 12.5523C10.846 12.9252 10.3709 13.1792 9.85358 13.2821C9.3363 13.385 8.80012 13.3322 8.31285 13.1304C7.82558 12.9285 7.40911 12.5867 7.11609 12.1482C6.82307 11.7097 6.66668 11.1941 6.66668 10.6667C6.66668 9.95944 6.94763 9.28116 7.44773 8.78106C7.94782 8.28096 8.6261 8.00001 9.33334 8.00001Z" fill="#9BABC5"/>
</svg>
