<svg width="30" height="32" viewBox="0 0 30 32" fill="none" xmlns="http://www.w3.org/2000/svg">
<path d="M21.3542 0.554565C21.1457 0.555926 20.9406 0.607378 20.7553 0.703126L15.6954 3.25265C15.0431 3.58373 14.7794 4.37841 15.1042 5.03383L17.6537 10.0912C18.4541 11.6798 20.8369 10.4791 20.0365 8.89056L18.5886 6.02854C23.2539 7.06943 26.737 11.2203 26.737 16.2134C26.737 21.1541 23.3142 25.2774 18.7266 26.3723C16.8617 26.6968 17.5367 29.516 19.3464 28.9608C25.1152 27.5841 29.4063 22.386 29.4063 16.2134C29.4063 10.4602 25.6744 5.56649 20.5001 3.81244L21.9454 3.08317C23.2092 2.45789 22.7643 0.554817 21.3542 0.554565ZM0.596436 15.7811C0.596436 21.5341 4.32599 26.4336 9.50008 28.1899L8.04695 28.9218C6.24347 29.6432 7.59893 32.3188 9.24747 31.2915L14.2969 28.7525C14.9591 28.4249 15.2289 27.6216 14.8985 26.9608L12.349 21.9113C12.1087 21.4154 11.5882 21.1184 11.0391 21.1639C10.0852 21.2405 9.52027 22.2676 9.96622 23.1144L11.4063 25.966C6.74481 24.9223 3.2631 20.7715 3.2631 15.7811C3.2631 10.8403 6.67811 6.72759 11.2657 5.63269C12.8912 5.37871 12.6753 2.67506 10.8529 3.00766C4.81445 4.10977 0.596436 9.60852 0.596436 15.7811Z" fill="#9BABC5"/>
</svg>
