<svg width="32" height="30" viewBox="0 0 32 30" fill="none" xmlns="http://www.w3.org/2000/svg">
<path d="M30.6667 12.3334H29.3333V7.00002C29.3333 6.6464 29.1929 6.30726 28.9428 6.05721C28.6928 5.80716 28.3536 5.66668 28 5.66668H22.6667V1.66668C22.6667 1.31306 22.5262 0.973924 22.2761 0.723875C22.0261 0.473827 21.687 0.333351 21.3333 0.333351H4C2.93949 0.334516 1.92275 0.756317 1.17286 1.50621C0.422966 2.2561 0.00116464 3.27284 0 4.33335V25.6667C0.00116464 26.7272 0.422966 27.7439 1.17286 28.4938C1.92275 29.2437 2.93949 29.6655 4 29.6667H28C28.3536 29.6667 28.6928 29.5262 28.9428 29.2762C29.1929 29.0261 29.3333 28.687 29.3333 28.3333V23H30.6667C31.0203 23 31.3594 22.8595 31.6095 22.6095C31.8595 22.3594 32 22.0203 32 21.6667V13.6667C32 13.3131 31.8595 12.9739 31.6095 12.7239C31.3594 12.4738 31.0203 12.3334 30.6667 12.3334ZM4 3.00002H20V5.66668H4C3.64638 5.66668 3.30724 5.52621 3.05719 5.27616C2.80714 5.02611 2.66667 4.68697 2.66667 4.33335C2.66667 3.97973 2.80714 3.64059 3.05719 3.39054C3.30724 3.14049 3.64638 3.00002 4 3.00002ZM26.6667 27H4C3.64652 26.9996 3.30765 26.8589 3.0577 26.609C2.80775 26.359 2.66713 26.0202 2.66667 25.6667V8.10482C3.09736 8.24653 3.5467 8.32355 4 8.33335H26.6667V12.3334H25.3333C23.9188 12.3334 22.5623 12.8953 21.5621 13.8954C20.5619 14.8956 20 16.2522 20 17.6667C20 19.0812 20.5619 20.4377 21.5621 21.4379C22.5623 22.4381 23.9188 23 25.3333 23H26.6667V27ZM29.3333 20.3333H25.3333C24.6261 20.3333 23.9478 20.0524 23.4477 19.5523C22.9476 19.0522 22.6667 18.3739 22.6667 17.6667C22.6667 16.9594 22.9476 16.2812 23.4477 15.7811C23.9478 15.281 24.6261 15 25.3333 15H29.3333V20.3333Z" fill="#9BABC5"/>
<path d="M25.3333 19C26.0697 19 26.6667 18.403 26.6667 17.6667C26.6667 16.9303 26.0697 16.3333 25.3333 16.3333C24.597 16.3333 24 16.9303 24 17.6667C24 18.403 24.597 19 25.3333 19Z" fill="#9BABC5"/>
</svg>
